<svg width="150" height="24" viewBox="0 0 150 24" fill="none" xmlns="http://www.w3.org/2000/svg">
<path fill-rule="evenodd" clip-rule="evenodd" d="M147.84 4.95571C148.407 4.98849 149.346 5.63326 149.324 7.10858C149.303 8.5839 148.484 9.05381 147.632 9.05381C146.781 9.05381 144.38 8.97731 143.899 9.05381C143.419 9.13031 143.692 9.52373 143.67 9.74229C143.648 9.96086 144.391 9.91714 145.471 9.96086C146.552 10.0046 149.728 11.0537 149.816 14.5398C149.903 18.0259 147.665 19.3373 144.5 19.3483C141.334 19.3592 139.697 18.9876 139.653 16.9877C139.61 14.9879 139.632 8.00469 139.588 6.90094C139.544 5.79718 140.472 4.78085 141.924 4.74807C143.376 4.71528 147.272 4.92292 147.84 4.95571ZM144.915 13.1956C144.292 13.1738 144.074 13.5672 144.052 13.7639C144.03 13.9606 144.052 14.3212 144.107 14.8458C144.15 15.3594 145.635 15.5234 145.864 14.6819C146.093 13.8185 145.537 13.2175 144.915 13.1956Z" fill="#0073E6"/>
<path fill-rule="evenodd" clip-rule="evenodd" d="M125.121 8.67033C124.521 7.75235 123.768 6.15682 125.197 4.911C126.627 3.66518 128.319 4.90007 129.051 5.98197C129.782 7.06387 130.459 7.70864 130.808 8.10206C131.157 8.49547 131.943 9.21674 132.314 8.02556C132.685 6.83438 132.904 6.28796 133.264 5.47927C133.624 4.67058 135.141 4.10231 136.44 4.61593C137.739 5.12956 137.903 6.35353 137.379 7.79606C136.855 9.2386 133.941 15.7409 132.729 17.5659C131.517 19.391 129.171 19.7953 127.828 19.544C126.485 19.2926 126.354 18.5167 126.409 17.2709C126.464 16.0251 127.293 15.3803 128.439 15.2382C129.585 15.0962 129.443 13.4569 128.57 12.5608C127.697 11.6647 125.721 9.5883 125.121 8.67033Z" fill="#0073E6"/>
<path fill-rule="evenodd" clip-rule="evenodd" d="M111.709 6.74679C111.709 5.70861 112.059 4.44093 113.98 4.41907C115.901 4.39721 116.348 5.54468 116.359 6.40801C116.37 7.27135 116.316 7.08557 116.348 7.68662C116.381 8.28768 116.949 8.79038 117.811 7.85055C118.673 6.91072 118.935 6.2878 119.601 5.53375C120.267 4.7797 121.206 4.62671 122.308 5.36983C123.411 6.11295 123.4 7.15114 122.548 8.28768C121.697 9.42422 120.856 10.4515 120.551 10.8449C120.245 11.2383 120.071 11.8175 120.78 12.7246C121.49 13.6316 122.636 15.3255 123.225 16.0795C123.815 16.8336 123.411 17.8827 122.45 18.604C121.49 19.3252 120.18 19.1176 119.394 17.9373C118.608 16.7571 118.357 16.2981 117.898 15.5878C117.44 14.8774 116.174 14.5496 116.174 15.5113C116.174 16.473 116.217 17.4565 116.228 17.8827C116.239 18.3089 115.715 19.3908 113.893 19.3471C112.07 19.3034 111.971 17.9155 111.95 17.1287C111.928 16.3418 111.709 7.79591 111.709 6.74679Z" fill="#0073E6"/>
<path fill-rule="evenodd" clip-rule="evenodd" d="M94.5042 5.78188C94.526 6.73264 94.4715 7.77083 94.526 8.53581C94.5806 9.30079 95.1045 10.6559 96.1742 9.28986C97.2439 7.92383 98.5756 5.48682 99.5689 4.65627C100.562 3.82572 103.968 3.74922 104.011 6.0223C104.055 8.29539 104.088 16.0545 104.055 17.2675C104.022 18.4805 103.171 19.1581 101.883 19.1909C100.595 19.2237 99.5143 18.568 99.4488 17.3768C99.3833 16.1856 99.427 15.9343 99.3833 14.8742C99.3397 13.8142 98.3573 13.5847 97.495 14.7431C96.6327 15.9015 95.6285 17.1364 94.5806 18.4478C93.5327 19.7592 89.8325 19.7482 89.6796 17.6828C89.5268 15.6173 89.5159 7.2572 89.5705 5.94581C89.6251 4.63441 90.3782 4.12078 92.1247 4.10985C93.8711 4.09893 94.4824 4.83112 94.5042 5.78188ZM95.9341 1.60728C96.4253 1.93513 97.7242 2.28483 98.1499 1.45428C98.5865 0.623735 99.3288 0.459811 100.267 0.700233C101.217 0.940655 101.315 2.26298 99.7217 3.32302C98.1281 4.38306 95.7922 4.26285 94.4278 3.67272C93.0634 3.0826 92.8451 2.27391 92.8123 1.72749C92.7796 1.19201 93.2162 0.558165 94.1986 0.492595C95.2028 0.427025 95.4429 1.27943 95.9341 1.60728Z" fill="#0073E6"/>
<path fill-rule="evenodd" clip-rule="evenodd" d="M73.665 6.09182C73.7087 5.14106 74.1235 4.43073 76.0555 4.43073C77.9984 4.44165 78.6424 4.846 78.6096 5.97162C78.5769 7.09723 78.6642 8.39769 78.6642 9.10803C78.6642 9.81837 79.2536 9.93858 79.8103 9.32659C80.367 8.71461 81.9715 6.53989 82.4846 5.75305C82.9976 4.96621 83.5652 4.60558 85.1152 4.64929C86.6651 4.693 87.1891 5.05364 87.1236 6.68195C87.0581 8.31027 87.0472 17.2824 87.0144 18.0255C86.9817 18.7686 86.2067 19.2276 84.4493 19.1839C82.692 19.1402 82.3208 18.7468 82.3099 17.7195C82.3099 17.2168 82.299 16.2005 82.299 15.7196C82.299 14.8891 81.8297 14.2443 81.1092 15.0312C80.1487 16.0803 79.1445 17.5009 78.2276 18.4736C77.3107 19.4462 76.5466 19.326 75.466 19.3478C74.3854 19.3697 73.8397 18.7796 73.8069 17.1294C73.7742 15.4792 73.6213 7.04259 73.665 6.09182Z" fill="#0073E6"/>
<path fill-rule="evenodd" clip-rule="evenodd" d="M58.0361 5.81899C58.047 4.96659 58.4182 4.5076 60.6558 4.48574C62.8934 4.46389 63.1882 5.14144 63.1772 6.0922C63.1663 7.04296 63.1882 8.3325 63.1991 8.84613C63.21 9.35976 63.461 9.79689 64.5635 9.75318C65.6659 9.70946 65.9388 9.63297 65.9279 8.8352C65.917 8.03744 65.9825 6.38727 66.037 5.76435C66.0916 5.14144 66.7138 4.54038 68.5585 4.54038C70.4032 4.54038 70.938 4.86823 70.9817 5.95013C71.0253 7.03203 70.9053 17.3046 70.8943 18.1024C70.8834 18.9001 70.5887 19.1296 68.5585 19.1734C66.5282 19.2171 66.0261 19.1187 65.9388 17.9822C65.8515 16.8456 65.9606 15.5779 65.9606 14.7037C65.9606 13.8294 65.6113 13.7857 64.4762 13.7966C63.341 13.8076 63.2318 14.0261 63.1882 14.9988C63.1445 15.9714 63.1772 17.5888 63.1882 18.3756C63.1991 19.1624 62.566 19.3373 60.5248 19.3482C58.4837 19.3591 58.3963 18.8346 58.2872 17.4685C58.178 16.1025 58.0361 6.6714 58.0361 5.81899Z" fill="#0073E6"/>
<path fill-rule="evenodd" clip-rule="evenodd" d="M42.0864 6.09182C42.1301 5.14106 42.5448 4.43073 44.4768 4.43073C46.4198 4.44165 47.0638 4.846 47.031 5.97162C46.9983 7.09723 47.0856 8.39769 47.0856 9.10803C47.0856 9.81837 47.675 9.93858 48.2317 9.32659C48.7884 8.71461 50.3929 6.53989 50.906 5.75305C51.419 4.96621 51.9866 4.60558 53.5365 4.64929C55.0865 4.693 55.6104 5.05364 55.545 6.68195C55.4795 8.31027 55.4685 17.2824 55.4358 18.0255C55.4031 18.7686 54.6281 19.2276 52.8707 19.1839C51.1133 19.1402 50.7422 18.7468 50.7313 17.7195C50.7313 17.2168 50.7204 16.2005 50.7204 15.7196C50.7204 14.8891 50.251 14.2443 49.5306 15.0312C48.5701 16.0803 47.5659 17.5009 46.649 18.4736C45.7321 19.4462 44.968 19.326 43.8874 19.3478C42.8068 19.3697 42.261 18.7796 42.2283 17.1294C42.1955 15.4792 42.0427 7.04259 42.0864 6.09182Z" fill="#0073E6"/>
<path fill-rule="evenodd" clip-rule="evenodd" d="M34.8526 9.69506C35.6167 9.54207 36.5336 9.95734 37.7233 10.1431C38.9131 10.3289 40.1683 8.41645 39.9828 7.1597C39.7972 5.90295 38.6075 5.08333 37.0902 4.61341C35.573 4.1435 32.9861 3.87029 30.7266 5.4986C28.4672 7.12691 27.4848 9.8262 27.9323 13.2905C28.3798 16.7547 30.7921 18.9185 34.034 19.3994C37.2758 19.8802 39.0004 19.006 39.6226 18.4158C40.2448 17.8257 40.081 15.9898 39.4261 14.886C38.7712 13.7822 37.2103 13.7713 36.1624 13.9571C35.1146 14.1429 32.9643 13.5855 32.8333 12.0119C32.7023 10.4382 34.0994 9.83713 34.8526 9.69506Z" fill="#0073E6"/>
<path d="M12.5479 21.7585C7.42166 23.6265 5.65033 21.9469 4.15785 17.8415L2.23884 12.5628C0.373056 7.43048 2.05063 5.65704 6.15117 4.16279L11.4236 2.2415C16.5498 0.373488 18.3212 2.05305 19.8136 6.15848L21.7326 11.4372C23.5984 16.5695 21.9209 18.3429 17.8203 19.8372L12.5479 21.7585Z" fill="#0073E6"/>
</svg>
